<?xml version="1.0" encoding="UTF-8"?>
<svg version="1.1" xmlns="http://www.w3.org/2000/svg" width="272" height="205">
<path d="M0 0 C2.18742097 -0.02792452 4.37495717 -0.04679456 6.5625 -0.0625 C7.78066406 -0.07410156 8.99882812 -0.08570313 10.25390625 -0.09765625 C16.84470412 0.03795687 23.42240775 0.56149385 30 1 C30 41.92 30 82.84 30 125 C35.28 121.04 40.56 117.08 46 113 C46.66 113 47.32 113 48 113 C48 76.04 48 39.08 48 1 C57.24 1 66.48 1 76 1 C76 39.94 76 78.88 76 119 C66.99810521 122.37571054 66.99810521 122.37571054 62.2175293 123.59399414 C61.1524968 123.86760269 60.08746429 124.14121124 58.99015808 124.42311096 C57.8628981 124.70758591 56.73563812 124.99206085 55.57421875 125.28515625 C54.39084427 125.58691269 53.20746979 125.88866913 51.98823547 126.1995697 C49.49344802 126.83454542 46.99808909 127.46727957 44.50219727 128.09790039 C40.70884065 129.05710372 36.91780362 130.02508617 33.12695312 130.99414062 C30.69284236 131.61250699 28.25860169 132.23036227 25.82421875 132.84765625 C24.14243782 133.27740501 24.14243782 133.27740501 22.42668152 133.71583557 C21.35219254 133.98629196 20.27770355 134.25674835 19.1706543 134.53540039 C18.24214157 134.77061905 17.31362885 135.00583771 16.35697937 135.2481842 C11.59799997 136.31398637 6.80214555 137.15330651 2 138 C1.99761165 137.33462377 1.99522329 136.66924753 1.99276257 135.98370838 C1.93362146 119.79215289 1.85807721 103.60076544 1.76428509 87.40937519 C1.71932324 79.57932697 1.67990951 71.74932427 1.65356445 63.91918945 C1.63058747 57.09428244 1.59719292 50.26951945 1.55129844 43.44472665 C1.52736201 39.83116945 1.50863606 36.21775492 1.50238609 32.60412025 C1.49521299 28.56961366 1.46478197 24.53560351 1.43237305 20.5012207 C1.43380814 19.30360107 1.43524323 18.10598145 1.4367218 16.87207031 C1.42418365 15.77135696 1.41164551 14.67064362 1.39872742 13.53657532 C1.39411845 12.58251958 1.38950949 11.62846384 1.38476086 10.64549732 C0.92998733 7.51861439 -0.22855951 5.58672094 -2 3 C-1.34 3 -0.68 3 0 3 C0 2.01 0 1.02 0 0 Z " fill="#010100" transform="translate(4,0)"/>
<path d="M0 0 C7.95481502 -0.21030354 15.90843309 -0.36931887 23.8653574 -0.46630955 C27.56188506 -0.51290713 31.25648566 -0.57589189 34.9519043 -0.67895508 C66.47624939 -1.53589283 66.47624939 -1.53589283 78 9 C79.79988399 10.79988399 79.11993004 13.24999876 79.12442017 15.64555359 C79.11902725 16.86043205 79.11902725 16.86043205 79.11352539 18.09985352 C79.11367142 18.94856018 79.11381744 19.79726685 79.1139679 20.67169189 C79.11326848 23.49078891 79.10547478 26.30982071 79.09765625 29.12890625 C79.09579217 31.07803817 79.09436822 33.02717055 79.09336853 34.9763031 C79.08954255 40.11706832 79.07971159 45.25780547 79.06866455 50.39855957 C79.05845215 55.64005148 79.05387128 60.8815479 79.04882812 66.12304688 C79.03808939 76.41537694 79.02101201 86.70768614 79 97 C77.72592479 97.48434685 76.45122048 97.96703907 75.17625427 98.44903564 C74.46647147 98.71801289 73.75668867 98.98699013 73.0253973 99.26411819 C68.80533132 100.79738269 64.42787214 101.7274804 60.0625 102.75 C58.62680664 103.09998047 58.62680664 103.09998047 57.16210938 103.45703125 C55.79989258 103.77994141 55.79989258 103.77994141 54.41015625 104.109375 C53.17471069 104.40279785 53.17471069 104.40279785 51.91430664 104.70214844 C51.28258545 104.80043945 50.65086426 104.89873047 50 105 C49.67 104.67 49.34 104.34 49 104 C49 102.35 49 100.7 49 99 C43.72 99 38.44 99 33 99 C33 102.3 33 105.6 33 109 C29.64744435 109.98498266 26.29314259 110.96313733 22.9375 111.9375 C21.99455078 112.21529297 21.05160156 112.49308594 20.08007812 112.77929688 C19.15517578 113.04677734 18.23027344 113.31425781 17.27734375 113.58984375 C16.43421631 113.83597412 15.59108887 114.08210449 14.72241211 114.33569336 C11.5034112 115.12117461 8.2808219 115.54826965 5 116 C4.99853344 115.44469573 4.99706688 114.88939146 4.99555588 114.31725979 C4.95845664 100.78708158 4.89914948 87.25715636 4.81609726 73.72717953 C4.77660134 67.18407633 4.744423 60.64110814 4.72900391 54.09790039 C4.71385162 47.78241463 4.6794305 41.46730001 4.63169098 35.15197945 C4.61686262 32.74350779 4.60895816 30.33498315 4.60811615 27.92646599 C4.60574925 24.55075463 4.57868969 21.17607118 4.54589844 17.80053711 C4.5509288 16.80647354 4.55595917 15.81240997 4.56114197 14.78822327 C4.46931492 8.67140535 3.50963816 5.04334099 0 0 Z M33 30 C33 42.87 33 55.74 33 69 C38.28 69 43.56 69 49 69 C49 56.13 49 43.26 49 30 C43.72 30 38.44 30 33 30 Z " fill="#000000" transform="translate(83,1)"/>
<path d="M0 0 C11.22 0 22.44 0 34 0 C35.85616859 4.64297117 37.70915523 9.2869587 39.55419922 13.93432617 C40.18288913 15.51513888 40.813413 17.0952235 41.44580078 18.67456055 C42.35411208 20.94391287 43.2558103 23.21579609 44.15625 25.48828125 C44.44060913 26.19463211 44.72496826 26.90098297 45.01794434 27.6287384 C46.17832702 30.57331497 47 32.80440229 47 36 C47.66 36 48.32 36 49 36 C49.1868335 34.94026978 49.1868335 34.94026978 49.37744141 33.85913086 C50.52220153 28.60176386 52.54361174 23.61330654 54.375 18.5625 C54.77460938 17.44294922 55.17421875 16.32339844 55.5859375 15.16992188 C55.9778125 14.08388672 56.3696875 12.99785156 56.7734375 11.87890625 C57.12841309 10.8947876 57.48338867 9.91066895 57.84912109 8.89672852 C59.05741198 5.85549572 60.53650666 2.92698668 62 0 C72.56 0 83.12 0 94 0 C93.67 23.76 93.34 47.52 93 72 C88.35048949 73.99264736 84.5445654 75.52355136 79.76782227 76.74584961 C78.57870743 77.05304428 77.38959259 77.36023895 76.16444397 77.67674255 C74.89459152 77.99869095 73.62473907 78.32063934 72.31640625 78.65234375 C70.9745633 78.99672103 69.63284496 79.34158414 68.29124451 79.68690491 C64.76580359 80.59288782 61.23865836 81.49205301 57.71112061 82.38983154 C54.17414581 83.29138183 50.63891907 84.19973307 47.10351562 85.10742188 C41.73909002 86.48416435 36.37256743 87.85229568 31.00439453 89.21435547 C26.86410675 90.26547651 22.72874157 91.33057228 18.60107422 92.43017578 C17.84841782 92.62776993 17.09576141 92.82536407 16.32029724 93.02894592 C14.47222585 93.51513665 12.62646926 94.01010543 10.78100586 94.50610352 C7.9935539 95.0011448 6.65066297 94.77054182 4 94 C3.99413376 92.90641174 3.98826752 91.81282349 3.98222351 90.68609619 C3.9250394 80.38589581 3.85230038 70.08590744 3.76428509 59.785923 C3.71953537 54.49043546 3.68028936 49.19502568 3.65356445 43.89941406 C3.62757744 38.78995692 3.58720765 33.68079826 3.53681374 28.57152557 C3.52011386 26.62110859 3.50861906 24.67063995 3.50238609 22.72016144 C3.49277894 19.99053061 3.46476049 17.26166883 3.43237305 14.53222656 C3.43380814 13.72374268 3.43524323 12.91525879 3.4367218 12.08227539 C3.36340905 7.72060845 2.98908402 5.23007975 0 2 C0 1.34 0 0.68 0 0 Z " fill="#000000" transform="translate(165,1)"/>
<path d="M0 0 C0.62282791 7.67134842 1.12403715 15.34299981 1.47920704 23.03124237 C1.64792854 26.60459894 1.85481654 30.16620507 2.15698242 33.73095703 C4.06272618 56.68601985 4.06272618 56.68601985 -1.05914307 63.90039062 C-6.63609462 69.46900514 -13.08014401 73.33078301 -20 77 C-20.99 77.66 -21.98 78.32 -23 79 C-23.99 79 -24.98 79 -26 79 C-26.33 61.51 -26.66 44.02 -27 26 C-28.04800781 29.88652344 -29.09601563 33.77304688 -30.17578125 37.77734375 C-31.01713383 40.86921134 -31.86102217 43.96036158 -32.70664215 47.05106354 C-33.59937813 50.31672088 -34.48756767 53.58346316 -35.36499023 56.85327148 C-36.37131939 60.60264462 -37.39795367 64.34630413 -38.42578125 68.08984375 C-38.73840408 69.26586655 -39.05102692 70.44188934 -39.37312317 71.65354919 C-39.8232502 73.27511681 -39.8232502 73.27511681 -40.2824707 74.92944336 C-40.54228226 75.88652695 -40.80209381 76.84361053 -41.06977844 77.82969666 C-41.37675156 78.54589676 -41.68372467 79.26209686 -42 80 C-42.99 80.33 -43.98 80.66 -45 81 C-49.95 67.8 -54.9 54.6 -60 41 C-60.04193321 48.50371435 -60.08200429 56.00700469 -60.10350037 63.51073456 C-60.11406402 67.00501007 -60.12818187 70.49918865 -60.15087891 73.9934082 C-60.17675512 78.00212546 -60.18647123 82.01073997 -60.1953125 86.01953125 C-60.20563507 87.27272659 -60.21595764 88.52592194 -60.22659302 89.8170929 C-60.22674408 90.97806992 -60.22689514 92.13904694 -60.22705078 93.33520508 C-60.23371262 94.87075798 -60.23371262 94.87075798 -60.24050903 96.43733215 C-60.18180912 99.24135634 -60.18180912 99.24135634 -58 102 C-58.20741878 104.55401867 -58.67955906 105.67502427 -60.48364258 107.50463867 C-61.42953247 108.20423706 -61.42953247 108.20423706 -62.39453125 108.91796875 C-63.44906494 109.71037964 -63.44906494 109.71037964 -64.52490234 110.51879883 C-65.27980957 111.06947021 -66.0347168 111.6201416 -66.8125 112.1875 C-67.96032959 113.04154419 -67.96032959 113.04154419 -69.13134766 113.9128418 C-70.68229037 115.06639398 -72.23599347 116.21624441 -73.79248047 117.36230469 C-75.77828429 118.83551549 -77.73987955 120.33340782 -79.69140625 121.8515625 C-80.23498779 122.27155518 -80.77856934 122.69154785 -81.33862305 123.12426758 C-82.78671609 124.24422131 -84.23325289 125.36618644 -85.6796875 126.48828125 C-88 128 -88 128 -91 128 C-90.86042877 127.38590271 -90.72085754 126.77180542 -90.57705688 126.13909912 C-88.48205544 115.56978724 -88.64705948 105.00083013 -88.5859375 94.265625 C-88.56719778 92.17526509 -88.54762234 90.08491253 -88.5272522 87.99456787 C-88.47622105 82.53015498 -88.43644114 77.06571764 -88.39910889 71.60119629 C-88.35888599 66.01011248 -88.30787764 60.41912781 -88.2578125 54.828125 C-88.16139738 43.88548661 -88.07688391 32.94279185 -88 22 C-82.96882606 20.04762577 -78.02949105 18.37697977 -72.79296875 17.03881836 C-72.12190094 16.86602859 -71.45083313 16.69323883 -70.75942993 16.51521301 C-68.56984303 15.95253795 -66.37871702 15.39613341 -64.1875 14.83984375 C-62.64858393 14.44573964 -61.10976721 14.05124739 -59.57104492 13.65638733 C-55.53758077 12.6224694 -51.502769 11.59391019 -47.46765137 10.56646729 C-43.3760148 9.52357055 -39.28573719 8.4753721 -35.1953125 7.42773438 C-20.11639865 3.56794424 -20.11639865 3.56794424 -13.36962891 1.86080933 C-11.34762893 1.34426686 -9.32809122 0.81770917 -7.31396484 0.27127075 C-2.20509461 -1.1025473 -2.20509461 -1.1025473 0 0 Z " fill="#000000" transform="translate(269,75)"/>
<path d="M0 0 C0.79641083 5.04393523 1.41540082 10.03300312 0 15 C-3.18998622 19.0613971 -6.8970687 21.79092968 -11.13134766 24.69824219 C-13.53803879 26.37481354 -15.81881546 28.18551799 -18.10986328 30.01538086 C-19.83478301 31.39279382 -21.57401415 32.75024819 -23.31640625 34.10546875 C-28.03686442 37.79679809 -32.67501715 41.58851079 -37.31958008 45.37451172 C-41.62333368 48.88259141 -45.94685658 52.36379185 -50.2890625 55.82421875 C-54.70181668 59.36586728 -59.08533908 62.94360699 -63.46875 66.52148438 C-64.75763381 67.57154559 -66.04882841 68.61877952 -67.34277344 69.66259766 C-68.6646484 70.72936711 -69.97828924 71.80633737 -71.2890625 72.88671875 C-73 74 -73 74 -76 74 C-75.67 55.85 -75.34 37.7 -75 19 C-69.73038648 17.24346216 -64.68803654 15.57617572 -59.3503418 14.19067383 C-58.12264572 13.87056839 -56.89494965 13.55046295 -55.63005066 13.22065735 C-54.31982794 12.88257036 -53.0095493 12.54470006 -51.69921875 12.20703125 C-50.33157402 11.85273037 -48.96396498 11.49829167 -47.59638977 11.14372253 C-44.74865028 10.40623869 -41.90029668 9.67118619 -39.05151367 8.93774414 C-35.40409449 7.99835808 -31.75862227 7.05164168 -28.11360455 6.10298634 C-25.29806045 5.37128572 -22.48137793 4.64404848 -19.66434669 3.91809654 C-18.31915987 3.57074824 -16.97436531 3.221877 -15.62998009 2.87143898 C-13.75541307 2.38338273 -11.87908393 1.90210985 -10.00268555 1.42114258 C-8.9372905 1.14595291 -7.87189545 0.87076324 -6.7742157 0.5872345 C-4 0 -4 0 0 0 Z " fill="#000000" transform="translate(92,120)"/>
<path d="M0 0 C0.01030746 0.74058151 0.02061493 1.48116302 0.03123474 2.2441864 C0.12932451 9.23287308 0.23185497 16.22147732 0.33933926 23.21002483 C0.39443855 26.80266543 0.44783721 30.39531434 0.49731445 33.98803711 C0.54515039 37.45699185 0.5974991 40.92585214 0.65294075 44.39469337 C0.68315603 46.35827285 0.70873098 48.32192195 0.73423767 50.28556824 C0.75418289 51.4864357 0.77412811 52.68730316 0.79467773 53.92456055 C0.81799416 55.50674629 0.81799416 55.50674629 0.84178162 57.12089539 C0.99139483 59.84341155 1.39029702 62.34640658 2 65 C-5.72496102 71.32673316 -13.4570776 77.64794617 -21.3125 83.8125 C-22.85357422 85.02873047 -22.85357422 85.02873047 -24.42578125 86.26953125 C-27 88 -27 88 -30 88 C-29.67 61.27 -29.34 34.54 -29 7 C-23.56685341 4.96257003 -18.4041655 3.18767515 -12.8125 1.8125 C-12.12736328 1.63525391 -11.44222656 1.45800781 -10.73632812 1.27539062 C-7.05950285 0.35883842 -3.77548045 -0.0800527 0 0 Z " fill="#000000" transform="translate(128,111)"/>
<path d="M0 0 C0.36721532 5.54835217 0.67223709 11.09549284 0.92163086 16.65039062 C1.01488027 18.53671146 1.12467618 20.42229342 1.25170898 22.30664062 C2.28627855 37.9034982 2.28627855 37.9034982 -0.75732422 42.86425781 C-3.05847419 44.92877687 -5.32873518 46.4539952 -8 48 C-9.27099468 48.99579848 -10.52770808 50.01024401 -11.765625 51.046875 C-12.92471308 51.9509637 -14.08612683 52.85207975 -15.25 53.75 C-16.42201399 54.6612796 -17.59389148 55.57273479 -18.765625 56.484375 C-19.31541016 56.90783203 -19.86519531 57.33128906 -20.43164062 57.76757812 C-21.89541167 58.91781415 -23.31692516 60.12126771 -24.734375 61.328125 C-27 63 -27 63 -30 63 C-30.85744096 56.3375901 -31.14706507 49.84225703 -31.1328125 43.12890625 C-31.13376923 42.12536606 -31.13472595 41.12182587 -31.13571167 40.08787537 C-31.13638785 37.98444556 -31.1345731 35.88101361 -31.13037109 33.77758789 C-31.12497518 30.54764193 -31.1303553 27.31783254 -31.13671875 24.08789062 C-31.13605864 22.03906219 -31.13477887 19.99023385 -31.1328125 17.94140625 C-31.13584885 16.48994957 -31.13584885 16.48994957 -31.13894653 15.00917053 C-31.13579437 14.11741623 -31.13264221 13.22566193 -31.12939453 12.30688477 C-31.12859894 11.52128677 -31.12780334 10.73568878 -31.12698364 9.92628479 C-31 8 -31 8 -30 6 C-25.821144 4.48144367 -21.48351982 3.45095666 -17.1875 2.3125 C-15.98544922 1.97927734 -14.78339844 1.64605469 -13.54492188 1.30273438 C-12.38927734 0.99271484 -11.23363281 0.68269531 -10.04296875 0.36328125 C-8.98102295 0.07751221 -7.91907715 -0.20825684 -6.82495117 -0.50268555 C-4.01208341 -0.99787279 -2.6708587 -0.77789505 0 0 Z " fill="#000000" transform="translate(174,100)"/>
</svg>
